<svg width="21" height="21" viewBox="0 0 21 21" fill="none" xmlns="http://www.w3.org/2000/svg">
<path d="M13.53 21H7.01C2.1 21 0 18.9 0 13.99V13.86C0 9.42003 1.75 7.28003 5.67 6.91003C6.07 6.88003 6.45 7.18003 6.49 7.59003C6.53 8.00003 6.23 8.37003 5.81 8.41003C2.67 8.70003 1.5 10.18 1.5 13.87V14C1.5 18.07 2.94 19.51 7.01 19.51H13.53C17.6 19.51 19.04 18.07 19.04 14V13.87C19.04 10.16 17.85 8.68003 14.65 8.41003C14.24 8.37003 13.93 8.01003 13.97 7.60003C14.01 7.19003 14.36 6.88003 14.78 6.92003C18.76 7.26003 20.54 9.41003 20.54 13.88V14.01C20.54 18.9 18.44 21 13.53 21Z" fill="white"/>
<path d="M10.27 14.38C9.86002 14.38 9.52002 14.04 9.52002 13.63V0.75C9.52002 0.34 9.86002 0 10.27 0C10.68 0 11.02 0.34 11.02 0.75V13.63C11.02 14.05 10.68 14.38 10.27 14.38Z" fill="white"/>
<path d="M10.2699 15.5001C10.0799 15.5001 9.88986 15.4301 9.73986 15.2801L6.38986 11.9301C6.09986 11.6401 6.09986 11.1601 6.38986 10.8701C6.67986 10.5801 7.15986 10.5801 7.44986 10.8701L10.2699 13.6901L13.0899 10.8701C13.3799 10.5801 13.8599 10.5801 14.1499 10.8701C14.4399 11.1601 14.4399 11.6401 14.1499 11.9301L10.7999 15.2801C10.6499 15.4301 10.4599 15.5001 10.2699 15.5001Z" fill="white"/>
</svg>
